<!DOCTYPE svg PUBLIC "-//W3C//DTD SVG 1.1//EN" "http://www.w3.org/Graphics/SVG/1.1/DTD/svg11.dtd">
<!-- Uploaded to: SVG Repo, www.svgrepo.com, Transformed by: SVG Repo Mixer Tools -->
<svg height="800px" width="800px" version="1.1" id="Layer_1" xmlns="http://www.w3.org/2000/svg" xmlns:xlink="http://www.w3.org/1999/xlink" viewBox="0 0 512 512" xml:space="preserve" fill="#000000">
<g id="SVGRepo_bgCarrier" stroke-width="0"/>
<g id="SVGRepo_tracerCarrier" stroke-linecap="round" stroke-linejoin="round"/>
<g id="SVGRepo_iconCarrier"> <path style="fill:#9dd558;" d="M422.054,235.442c-6.657-3.172-13.592-5.847-20.757-7.986c-6.728-2.011-13.661-3.542-20.757-4.564 c-6.782-0.973-13.709-1.489-20.757-1.489c-1.768,0-3.53,0.033-5.283,0.095c-5.232,0.192-10.395,0.664-15.474,1.393 c-9.057,1.301-17.844,3.439-26.284,6.335c-0.025,0.008-0.048,0.018-0.073,0.026c-1.63,0.56-3.246,1.149-4.849,1.764 c-0.231,0.089-0.458,0.185-0.689,0.275c-1.392,0.544-2.777,1.102-4.149,1.687c-0.347,0.148-0.69,0.307-1.038,0.458 c-1.245,0.542-2.485,1.095-3.713,1.67c-0.649,0.306-1.291,0.623-1.933,0.937c-1.1,0.537-2.192,1.085-3.277,1.647 c-0.908,0.473-1.817,0.944-2.714,1.434c-0.671,0.368-1.334,0.751-2,1.129c-0.692,0.393-1.385,0.785-2.069,1.187 c-0.66,0.389-1.313,0.787-1.968,1.186c-0.685,0.421-1.369,0.841-2.047,1.272c-0.628,0.4-1.255,0.803-1.878,1.211 c-0.713,0.466-1.416,0.941-2.119,1.42c-0.574,0.389-1.149,0.778-1.716,1.176c-0.845,0.594-1.68,1.203-2.512,1.813 c-0.411,0.3-0.828,0.594-1.233,0.897c-1.211,0.908-2.405,1.835-3.585,2.78c-0.393,0.315-0.778,0.639-1.167,0.956 c-0.826,0.674-1.647,1.353-2.456,2.045c-0.439,0.375-0.873,0.757-1.306,1.136c-0.762,0.666-1.519,1.34-2.267,2.022 c-0.418,0.381-0.833,0.762-1.245,1.147c-0.786,0.733-1.562,1.478-2.332,2.228c-0.349,0.34-0.702,0.677-1.046,1.02 c-0.999,0.994-1.983,2-2.953,3.024c-0.098,0.104-0.201,0.203-0.299,0.309c-1.099,1.167-2.177,2.35-3.239,3.551 c-0.191,0.216-0.375,0.439-0.565,0.657c-0.844,0.967-1.679,1.944-2.498,2.935c-0.285,0.343-0.565,0.692-0.845,1.038 c-0.638,0.786-1.266,1.582-1.887,2.382c-0.648,0.833-1.283,1.676-1.912,2.521c-0.473,0.635-0.949,1.268-1.411,1.911 c-0.681,0.948-1.341,1.91-2,2.873c-0.376,0.552-0.765,1.097-1.135,1.655c-0.994,1.499-1.962,3.015-2.9,4.551 c-0.27,0.44-0.522,0.894-0.786,1.338c-0.688,1.151-1.367,2.308-2.024,3.482c-0.329,0.589-0.646,1.187-0.967,1.782 c-0.57,1.056-1.135,2.116-1.681,3.188c-0.317,0.619-0.623,1.241-0.93,1.867c-0.512,1.042-1.01,2.092-1.499,3.147 c-0.336,0.729-0.668,1.461-0.995,2.196c-0.461,1.041-0.904,2.091-1.341,3.143c-0.307,0.742-0.613,1.483-0.908,2.231 c-0.414,1.049-0.807,2.108-1.197,3.166c-0.293,0.8-0.594,1.598-0.873,2.405c-0.26,0.747-0.505,1.5-0.753,2.253 c-0.318,0.967-0.634,1.937-0.933,2.916c-0.244,0.796-0.476,1.595-0.707,2.397c-0.25,0.87-0.495,1.742-0.731,2.62 c-0.216,0.811-0.421,1.625-0.621,2.441c-0.226,0.905-0.446,1.814-0.655,2.727c-0.179,0.783-0.346,1.573-0.512,2.362 c-0.202,0.959-0.399,1.922-0.58,2.889c-0.144,0.754-0.275,1.511-0.405,2.269c-0.173,1.007-0.34,2.016-0.493,3.031 c-0.116,0.771-0.223,1.544-0.327,2.321c-0.126,0.937-0.246,1.874-0.354,2.815c-0.095,0.839-0.18,1.679-0.26,2.52 c-0.084,0.875-0.167,1.749-0.237,2.628c-0.077,0.973-0.137,1.95-0.194,2.927c-0.048,0.847-0.102,1.694-0.138,2.545 c-0.019,0.461-0.035,0.922-0.048,1.384c-0.048,1.514-0.084,3.031-0.084,4.557c0,1.928,0.048,3.841,0.125,5.751 c0.012,0.315,0.022,0.63,0.035,0.944c0.086,1.846,0.205,3.682,0.358,5.509c0.025,0.299,0.053,0.596,0.08,0.894 c0.17,1.903,0.371,3.798,0.613,5.679c0.003,0.014,0.006,0.029,0.007,0.043c0.259,1.977,0.558,3.941,0.894,5.894 c0.015,0.091,0.029,0.184,0.046,0.275c0.336,1.929,0.713,3.846,1.125,5.75c0.028,0.125,0.054,0.25,0.082,0.375 c1.298,5.914,2.953,11.697,4.947,17.322c1.261,3.556,2.658,7.05,4.18,10.475c0.028,0.058,0.051,0.116,0.077,0.174 c0.718,1.608,1.47,3.201,2.242,4.777c0.118,0.238,0.237,0.476,0.356,0.714c0.774,1.553,1.566,3.094,2.393,4.616 c0.93,1.709,1.9,3.393,2.895,5.059c0.108,0.18,0.212,0.363,0.32,0.542c0.965,1.598,1.964,3.177,2.986,4.735 c0.143,0.217,0.285,0.433,0.429,0.65c1.036,1.56,2.101,3.101,3.195,4.618c0.116,0.161,0.232,0.318,0.349,0.477 c1.149,1.579,2.322,3.138,3.533,4.668c26.632,33.694,67.849,55.356,114.033,55.356c80.117,0,145.298-65.179,145.298-145.298 C505.082,308.857,471.1,258.804,422.054,235.442z M418.742,350.936l-58.958,58.959l-3.313,3.311 c-4.053,4.053-9.366,6.079-14.677,6.079c-5.311,0-10.625-2.026-14.676-6.079l-27.676-27.676c-8.106-8.106-8.106-21.249,0-29.356 c8.105-8.105,21.248-8.105,29.354,0l12.999,12.998l17.989-17.989l29.605-29.603c8.105-8.105,21.248-8.105,29.354,0 C426.849,329.687,426.849,342.83,418.742,350.936z"/> <path style="fill:#E0E0E2;" d="M241.869,451.499c-1.095-1.518-2.159-3.057-3.195-4.618c-0.144-0.216-0.286-0.433-0.429-0.65 c-1.023-1.558-2.022-3.136-2.986-4.735c-0.108-0.18-0.212-0.363-0.32-0.542c-1.881-3.15-3.645-6.378-5.287-9.675 c-0.119-0.238-0.238-0.476-0.356-0.714c-0.775-1.578-1.525-3.169-2.242-4.777c-0.025-0.058-0.05-0.116-0.077-0.174 c-3.936-8.838-7.01-18.139-9.127-27.798c-0.028-0.125-0.054-0.25-0.082-0.375c-0.412-1.904-0.789-3.821-1.125-5.75 c-0.017-0.091-0.03-0.184-0.046-0.275c-0.336-1.953-0.638-3.916-0.894-5.894c-0.001-0.015-0.004-0.03-0.007-0.043 c-0.244-1.882-0.443-3.776-0.613-5.679c-0.028-0.299-0.055-0.596-0.08-0.894c-0.152-1.828-0.274-3.664-0.358-5.51 c-0.014-0.314-0.024-0.628-0.035-0.944c-0.076-1.91-0.125-3.825-0.125-5.751c0-1.525,0.035-3.043,0.084-4.557 c0.014-0.462,0.029-0.923,0.048-1.384c0.014-0.324,0.021-0.652,0.035-0.974H110.701c-11.463,0-20.757-9.294-20.757-20.757 s9.294-20.757,20.757-20.757h112.094c0.188-0.53,0.401-1.048,0.595-1.573c0.39-1.061,0.783-2.117,1.197-3.166 c0.296-0.747,0.602-1.489,0.908-2.231c0.436-1.053,0.88-2.102,1.341-3.143c0.325-0.735,0.659-1.467,0.995-2.196 c0.235-0.509,0.452-1.027,0.695-1.532c0.257-0.544,0.54-1.075,0.804-1.615c0.307-0.624,0.613-1.247,0.93-1.867 c0.547-1.071,1.111-2.132,1.681-3.188c0.321-0.595,0.638-1.193,0.967-1.782c0.657-1.173,1.337-2.33,2.024-3.482 c0.264-0.444,0.516-0.897,0.786-1.338c0.938-1.536,1.905-3.053,2.9-4.551c0.369-0.558,0.758-1.103,1.135-1.655 c0.66-0.963,1.319-1.926,2-2.873c0.462-0.643,0.938-1.276,1.411-1.911c0.63-0.845,1.265-1.69,1.912-2.521 c0.228-0.293,0.443-0.598,0.674-0.888h-135.05c-11.463,0-20.757-9.294-20.757-20.757s9.294-20.757,20.757-20.757h187.231 c0.1-0.047,0.202-0.09,0.302-0.137c1.227-0.576,2.466-1.128,3.713-1.67c0.347-0.151,0.69-0.31,1.038-0.458 c1.371-0.585,2.757-1.143,4.149-1.687c0.231-0.09,0.458-0.187,0.689-0.275c1.602-0.616,3.219-1.204,4.849-1.764 c0.025-0.008,0.048-0.018,0.073-0.026c13.174-4.522,27.193-7.204,41.757-7.728c1.753-0.064,3.515-0.095,5.283-0.095 c7.048,0,13.976,0.515,20.757,1.489v-63.225c-0.286,11.214-9.446,20.221-20.729,20.221c-0.011,0-0.019,0-0.028,0h-20.757H221.406 c-11.463,0-20.757-9.294-20.757-20.757V41.514V20.757c0-8.394,5.056-15.963,12.814-19.175c2.682-1.111,5.502-1.611,8.29-1.564 C221.636,0.015,221.521,0,221.405,0H27.674C16.21,0,6.917,9.294,6.917,20.757v415.139c0,11.463,9.294,20.757,20.757,20.757h218.083 c-0.003-0.003-0.004-0.006-0.006-0.008c-1.211-1.529-2.384-3.089-3.533-4.668C242.102,451.818,241.986,451.66,241.869,451.499z"/> <path style="fill:#D6D5D8;" d="M374.567,144.573c-0.036-0.037-0.069-0.08-0.105-0.118L236.082,6.08l137.754,137.751 C374.092,144.064,374.322,144.325,374.567,144.573z"/> <g> <path style="fill:#57565C;" d="M110.701,318.273c-11.463,0-20.757,9.294-20.757,20.757s9.294,20.757,20.757,20.757h103.952 c0.025-0.526,0.073-1.046,0.102-1.571c0.058-0.977,0.116-1.954,0.194-2.927c0.069-0.879,0.152-1.753,0.237-2.628 c0.083-0.841,0.165-1.683,0.26-2.52c0.107-0.942,0.228-1.878,0.354-2.815c0.062-0.459,0.108-0.924,0.174-1.382 c0.046-0.316,0.105-0.624,0.152-0.938c0.152-1.013,0.318-2.023,0.494-3.029c0.13-0.758,0.262-1.515,0.405-2.269 c0.183-0.967,0.378-1.93,0.58-2.889c0.166-0.789,0.333-1.579,0.512-2.362c0.208-0.913,0.429-1.821,0.655-2.727 c0.202-0.816,0.405-1.63,0.621-2.441c0.235-0.877,0.482-1.749,0.731-2.62c0.141-0.493,0.266-0.992,0.414-1.482 c0.091-0.309,0.199-0.607,0.293-0.915c0.298-0.977,0.613-1.947,0.933-2.916c0.248-0.753,0.493-1.506,0.753-2.253 c0.095-0.275,0.18-0.556,0.278-0.832H110.701V318.273z"/> <path style="fill:#57565C;" d="M110.701,235.246c-11.463,0-20.757,9.294-20.757,20.757c0,11.463,9.294,20.757,20.757,20.757h135.05 c0.397-0.502,0.81-0.995,1.214-1.492c0.281-0.346,0.56-0.695,0.845-1.038c0.819-0.991,1.652-1.968,2.498-2.935 c0.19-0.217,0.375-0.44,0.565-0.657c1.063-1.201,2.141-2.386,3.239-3.551c0.098-0.104,0.201-0.203,0.299-0.309 c0.97-1.023,1.954-2.03,2.953-3.024c0.345-0.343,0.697-0.679,1.046-1.02c0.769-0.75,1.544-1.495,2.332-2.228 c0.412-0.385,0.829-0.767,1.245-1.147c0.749-0.682,1.504-1.355,2.267-2.022c0.433-0.379,0.868-0.761,1.306-1.136 c0.81-0.692,1.632-1.37,2.456-2.044c0.389-0.318,0.774-0.642,1.167-0.956c1.182-0.945,2.375-1.872,3.585-2.78 c0.405-0.306,0.822-0.598,1.233-0.897c0.833-0.61,1.666-1.221,2.512-1.814c0.567-0.399,1.142-0.786,1.716-1.176 c0.703-0.479,1.407-0.953,2.119-1.42c0.623-0.408,1.25-0.811,1.878-1.211c0.679-0.43,1.362-0.852,2.048-1.272 c0.655-0.399,1.308-0.797,1.968-1.187c0.684-0.404,1.377-0.794,2.069-1.187c0.667-0.378,1.328-0.762,2-1.129 c0.898-0.491,1.806-0.96,2.714-1.434c1.083-0.563,2.177-1.111,3.277-1.647c0.545-0.264,1.084-0.541,1.633-0.8H110.701V235.246z"/> </g> <path style="fill:#C6C5CA;" d="M200.648,20.757v20.757v117.619c0,11.463,9.294,20.757,20.757,20.757h117.622h20.757 c0.008,0,0.017,0,0.028,0c11.283,0,20.443-9.008,20.729-20.221c0.006-0.18,0.028-0.356,0.028-0.536c0-4.966-1.762-9.507-4.67-13.08 c-0.035-0.04-0.068-0.083-0.101-0.125c-0.387-0.469-0.798-0.92-1.23-1.356c-0.245-0.248-0.475-0.508-0.731-0.742L236.081,6.079 c-0.441-0.441-0.906-0.855-1.384-1.252c-0.133-0.111-0.268-0.214-0.404-0.322c-0.367-0.292-0.743-0.57-1.128-0.836 c-0.14-0.095-0.278-0.194-0.419-0.285c-0.5-0.327-1.01-0.637-1.535-0.919c-0.014-0.007-0.028-0.017-0.04-0.024 c-0.544-0.291-1.102-0.548-1.667-0.789c-0.154-0.065-0.31-0.123-0.465-0.184c-0.423-0.167-0.851-0.321-1.286-0.461 c-0.176-0.055-0.35-0.113-0.527-0.166c-0.542-0.158-1.088-0.299-1.643-0.412c-0.043-0.01-0.087-0.024-0.131-0.032 c-0.588-0.118-1.185-0.201-1.782-0.266c-0.188-0.021-0.375-0.033-0.563-0.05c-0.45-0.036-0.901-0.06-1.356-0.066 c-2.79-0.047-5.61,0.452-8.29,1.564C205.704,4.793,200.648,12.363,200.648,20.757z"/> <path style="fill:#79AB03;" d="M418.742,321.582c-8.105-8.105-21.248-8.105-29.354,0l-29.605,29.603l-17.989,17.989l-12.999-12.998 c-8.105-8.105-21.248-8.105-29.354,0s-8.106,21.248,0,29.356l27.676,27.676c4.053,4.053,9.365,6.079,14.676,6.079 c5.311,0,10.625-2.026,14.676-6.079l3.313-3.313l58.958-58.958C426.849,342.83,426.849,329.687,418.742,321.582z"/> <path style="fill:#9dd558;" d="M356.471,413.207c-4.053,4.053-9.366,6.079-14.677,6.079c-5.312,0-10.625-2.026-14.676-6.079 l-27.676-27.676c-8.106-8.106-8.106-21.249,0-29.356c8.105-8.105,21.248-8.105,29.354,0l12.999,12.998l17.989-17.989v-129.78 c-1.768,0-3.53,0.033-5.283,0.095c-5.232,0.192-10.395,0.664-15.474,1.393c-9.057,1.301-17.843,3.439-26.284,6.335 c-0.025,0.008-0.048,0.018-0.073,0.026c-1.63,0.56-3.246,1.149-4.849,1.764c-0.231,0.089-0.458,0.185-0.689,0.275 c-1.392,0.544-2.777,1.102-4.149,1.687c-0.347,0.148-0.69,0.307-1.038,0.458c-1.245,0.542-2.485,1.095-3.713,1.67 c-0.649,0.306-1.291,0.623-1.935,0.937c-1.1,0.537-2.192,1.085-3.277,1.647c-0.908,0.473-1.817,0.944-2.714,1.434 c-0.671,0.368-1.334,0.751-2,1.129c-0.692,0.393-1.385,0.785-2.069,1.187c-0.659,0.389-1.313,0.787-1.968,1.187 c-0.685,0.421-1.369,0.841-2.048,1.272c-0.628,0.4-1.255,0.803-1.878,1.211c-0.713,0.466-1.416,0.941-2.119,1.42 c-0.574,0.389-1.149,0.776-1.716,1.176c-0.845,0.594-1.68,1.203-2.512,1.814c-0.411,0.3-0.828,0.594-1.233,0.897 c-1.211,0.908-2.405,1.835-3.585,2.78c-0.393,0.314-0.778,0.639-1.167,0.956c-0.826,0.674-1.647,1.352-2.456,2.044 c-0.439,0.375-0.873,0.757-1.306,1.136c-0.762,0.666-1.519,1.34-2.267,2.022c-0.418,0.381-0.833,0.762-1.245,1.147 c-0.786,0.733-1.562,1.478-2.332,2.228c-0.349,0.34-0.702,0.677-1.046,1.02c-0.999,0.994-1.983,2-2.953,3.024 c-0.098,0.104-0.201,0.203-0.299,0.309c-1.099,1.167-2.177,2.35-3.239,3.551c-0.191,0.216-0.375,0.439-0.565,0.657 c-0.844,0.967-1.679,1.944-2.498,2.935c-0.285,0.343-0.565,0.692-0.845,1.038c-0.638,0.786-1.266,1.582-1.887,2.381 c-0.648,0.833-1.283,1.676-1.912,2.521c-0.473,0.635-0.949,1.268-1.411,1.911c-0.681,0.948-1.341,1.91-2,2.873 c-0.378,0.552-0.765,1.097-1.135,1.655c-0.994,1.499-1.962,3.015-2.9,4.551c-0.27,0.44-0.522,0.893-0.786,1.338 c-0.688,1.151-1.367,2.308-2.024,3.482c-0.329,0.589-0.646,1.187-0.967,1.782c-0.57,1.056-1.135,2.116-1.681,3.188 c-0.317,0.619-0.623,1.241-0.93,1.867c-0.512,1.042-1.01,2.092-1.499,3.147c-0.336,0.729-0.668,1.461-0.995,2.196 c-0.461,1.041-0.904,2.091-1.341,3.143c-0.307,0.742-0.613,1.483-0.908,2.231c-0.414,1.049-0.807,2.108-1.197,3.166 c-0.293,0.8-0.594,1.598-0.873,2.405c-0.262,0.747-0.505,1.5-0.753,2.253c-0.318,0.967-0.634,1.937-0.933,2.916 c-0.244,0.796-0.476,1.595-0.707,2.397c-0.25,0.87-0.495,1.742-0.731,2.62c-0.216,0.811-0.421,1.625-0.621,2.441 c-0.226,0.905-0.446,1.814-0.655,2.727c-0.178,0.783-0.346,1.573-0.512,2.362c-0.202,0.959-0.399,1.922-0.58,2.889 c-0.144,0.754-0.275,1.511-0.405,2.269c-0.173,1.007-0.34,2.016-0.494,3.029c-0.116,0.771-0.223,1.544-0.327,2.321 c-0.126,0.937-0.246,1.874-0.354,2.815c-0.095,0.837-0.18,1.679-0.26,2.52c-0.084,0.875-0.167,1.749-0.237,2.628 c-0.077,0.973-0.137,1.95-0.194,2.927c-0.048,0.847-0.102,1.694-0.138,2.545c-0.019,0.461-0.035,0.922-0.048,1.384 c-0.048,1.514-0.084,3.03-0.084,4.557c0,1.928,0.048,3.841,0.125,5.751c0.012,0.315,0.022,0.63,0.035,0.944 c0.086,1.846,0.205,3.682,0.358,5.51c0.025,0.299,0.053,0.596,0.08,0.894c0.17,1.903,0.371,3.798,0.613,5.679 c0.003,0.014,0.006,0.029,0.007,0.043c0.257,1.977,0.558,3.941,0.894,5.894c0.015,0.091,0.029,0.184,0.046,0.275 c0.336,1.93,0.713,3.846,1.125,5.75c0.028,0.125,0.054,0.25,0.082,0.375c1.298,5.914,2.953,11.697,4.947,17.322 c1.261,3.556,2.658,7.05,4.18,10.475c0.028,0.058,0.051,0.116,0.077,0.174c0.718,1.608,1.468,3.201,2.242,4.777 c0.118,0.238,0.237,0.476,0.356,0.714c0.774,1.553,1.566,3.094,2.394,4.616c0.93,1.709,1.9,3.393,2.895,5.059 c0.108,0.18,0.212,0.363,0.32,0.542c0.965,1.598,1.964,3.177,2.986,4.735c0.141,0.217,0.285,0.434,0.429,0.65 c1.036,1.56,2.099,3.101,3.195,4.618c0.116,0.161,0.232,0.317,0.349,0.477c1.149,1.579,2.322,3.138,3.533,4.668 C272.383,490.338,313.6,512,359.784,512V409.896L356.471,413.207z"/> <g> <path style="fill:#A6D864;" d="M301.945,233.439c-1.245,0.542-2.485,1.095-3.713,1.67 C299.46,234.533,300.7,233.981,301.945,233.439z"/> <path style="fill:#A6D864;" d="M307.132,231.294c-1.392,0.544-2.777,1.102-4.149,1.687 C304.355,232.395,305.74,231.838,307.132,231.294z"/> <path style="fill:#A6D864;" d="M245.751,456.644c-1.211-1.529-2.384-3.089-3.533-4.668 C243.367,453.556,244.54,455.115,245.751,456.644z"/> <path style="fill:#A6D864;" d="M232.046,435.896c-0.828-1.522-1.62-3.064-2.394-4.616c1.644,3.298,3.407,6.526,5.287,9.675 C233.944,439.289,232.974,437.605,232.046,435.896z"/> <path style="fill:#A6D864;" d="M226.836,308.159c-0.461,1.042-0.904,2.091-1.341,3.143 C225.931,310.25,226.375,309.2,226.836,308.159z"/> <path style="fill:#A6D864;" d="M214.618,360.761c-0.019,0.461-0.035,0.922-0.048,1.384 C214.582,361.683,214.599,361.222,214.618,360.761z"/> <path style="fill:#A6D864;" d="M312.67,229.254c-1.63,0.56-3.246,1.149-4.849,1.764C309.423,230.403,311.04,229.815,312.67,229.254 z"/> <path style="fill:#A6D864;" d="M227.831,305.963c0.488-1.056,0.987-2.105,1.499-3.147c-0.264,0.54-0.547,1.071-0.804,1.615 C228.283,304.936,228.066,305.454,227.831,305.963z"/> <path style="fill:#A6D864;" d="M215.083,379.801c0.17,1.903,0.371,3.797,0.613,5.679 C215.453,383.599,215.254,381.704,215.083,379.801z"/> <path style="fill:#A6D864;" d="M339.027,222.893c5.079-0.729,10.24-1.201,15.474-1.393c-14.563,0.524-28.584,3.206-41.757,7.728 C321.184,226.332,329.97,224.195,339.027,222.893z"/> <path style="fill:#A6D864;" d="M235.26,441.497c0.965,1.6,1.964,3.177,2.986,4.735C237.224,444.674,236.225,443.096,235.26,441.497 z"/> <path style="fill:#A6D864;" d="M224.587,313.534c-0.414,1.049-0.807,2.105-1.197,3.166 C223.781,315.641,224.174,314.583,224.587,313.534z"/> <path style="fill:#A6D864;" d="M214.486,366.702c0,1.928,0.048,3.841,0.125,5.751C214.534,370.543,214.486,368.63,214.486,366.702z "/> <path style="fill:#A6D864;" d="M238.676,446.882c1.036,1.561,2.099,3.1,3.195,4.618 C240.775,449.984,239.712,448.441,238.676,446.882z"/> <path style="fill:#A6D864;" d="M241.753,282.082c-0.681,0.948-1.341,1.91-2,2.873C240.412,283.991,241.072,283.028,241.753,282.082 z"/> <path style="fill:#A6D864;" d="M222.798,415.139c-1.994-5.625-3.65-11.407-4.947-17.322c2.116,9.657,5.192,18.959,9.127,27.798 C225.456,422.189,224.059,418.695,222.798,415.139z"/> <path style="fill:#A6D864;" d="M231.939,297.763c-0.57,1.056-1.135,2.116-1.681,3.188 C230.805,299.879,231.369,298.817,231.939,297.763z"/> <path style="fill:#A6D864;" d="M214.645,373.397c0.084,1.846,0.205,3.681,0.358,5.51 C214.851,377.079,214.731,375.243,214.645,373.397z"/> <path style="fill:#A6D864;" d="M245.076,277.648c-0.648,0.833-1.283,1.676-1.912,2.521 C243.794,279.325,244.429,278.481,245.076,277.648z"/> <path style="fill:#A6D864;" d="M234.931,292.499c-0.688,1.151-1.367,2.308-2.024,3.482 C233.564,294.807,234.243,293.65,234.931,292.499z"/> <path style="fill:#A6D864;" d="M216.644,391.693c0.336,1.93,0.714,3.846,1.125,5.75 C217.356,395.539,216.981,393.622,216.644,391.693z"/> <path style="fill:#A6D864;" d="M215.703,385.524c0.257,1.977,0.558,3.941,0.894,5.894 C216.261,389.464,215.961,387.5,215.703,385.524z"/> <path style="fill:#A6D864;" d="M238.619,286.609c-0.995,1.499-1.962,3.015-2.9,4.551 C236.655,289.625,237.625,288.108,238.619,286.609z"/> <path style="fill:#A6D864;" d="M227.055,425.788c0.718,1.608,1.468,3.201,2.242,4.777 C228.523,428.989,227.773,427.396,227.055,425.788z"/> <path style="fill:#A6D864;" d="M214.949,355.29c-0.077,0.973-0.136,1.95-0.194,2.927 C214.812,357.24,214.872,356.263,214.949,355.29z"/> <path style="fill:#A6D864;" d="M215.8,347.327c0.104-0.776,0.21-1.55,0.327-2.321c-0.047,0.314-0.107,0.623-0.152,0.938 C215.908,346.403,215.862,346.868,215.8,347.327z"/> <path style="fill:#A6D864;" d="M220.125,326.67c0.231-0.801,0.464-1.601,0.707-2.397c-0.094,0.307-0.201,0.607-0.293,0.915 C220.392,325.678,220.267,326.178,220.125,326.67z"/> <path style="fill:#A6D864;" d="M222.517,319.105c-0.26,0.747-0.505,1.5-0.753,2.253 C222.012,320.605,222.256,319.854,222.517,319.105z"/> <path style="fill:#A6D864;" d="M219.394,329.29c-0.216,0.811-0.421,1.625-0.621,2.441 C218.973,330.914,219.178,330.101,219.394,329.29z"/> <path style="fill:#A6D864;" d="M218.118,334.457c-0.179,0.783-0.346,1.573-0.512,2.362 C217.772,336.03,217.94,335.241,218.118,334.457z"/> <path style="fill:#A6D864;" d="M215.446,350.142c-0.095,0.837-0.179,1.679-0.26,2.52 C215.267,351.821,215.35,350.981,215.446,350.142z"/> <path style="fill:#A6D864;" d="M217.026,339.708c-0.144,0.754-0.275,1.511-0.405,2.269 C216.751,341.219,216.882,340.462,217.026,339.708z"/> <path style="fill:#A6D864;" d="M265.559,256.202c-0.439,0.375-0.873,0.757-1.306,1.136 C264.685,256.958,265.12,256.577,265.559,256.202z"/> <path style="fill:#A6D864;" d="M296.299,236.046c-1.1,0.537-2.193,1.084-3.277,1.647 C294.108,237.131,295.199,236.583,296.299,236.046z"/> <path style="fill:#A6D864;" d="M269.181,253.201c-0.393,0.314-0.778,0.639-1.167,0.956 C268.405,253.84,268.788,253.515,269.181,253.201z"/> <path style="fill:#A6D864;" d="M247.81,274.23c-0.285,0.343-0.565,0.692-0.845,1.038 C247.245,274.922,247.525,274.573,247.81,274.23z"/> <path style="fill:#A6D864;" d="M278.229,246.534c-0.574,0.389-1.149,0.776-1.716,1.176 C277.079,247.311,277.653,246.922,278.229,246.534z"/> <path style="fill:#A6D864;" d="M257.362,263.756c0.345-0.343,0.697-0.679,1.046-1.02 C258.06,263.075,257.707,263.412,257.362,263.756z"/> <path style="fill:#A6D864;" d="M286.239,241.444c-0.659,0.389-1.313,0.787-1.968,1.187 C284.926,242.233,285.581,241.834,286.239,241.444z"/> <path style="fill:#A6D864;" d="M274,249.522c-0.411,0.3-0.828,0.592-1.233,0.897C273.172,250.116,273.589,249.823,274,249.522z"/> <path style="fill:#A6D864;" d="M282.225,243.903c-0.628,0.4-1.255,0.803-1.878,1.211 C280.97,244.706,281.597,244.303,282.225,243.903z"/> <path style="fill:#A6D864;" d="M290.309,239.127c-0.671,0.368-1.334,0.751-2,1.129 C288.975,239.879,289.638,239.494,290.309,239.127z"/> <path style="fill:#A6D864;" d="M250.872,270.638c-0.191,0.216-0.375,0.439-0.565,0.657 C250.496,271.078,250.681,270.854,250.872,270.638z"/> <path style="fill:#A6D864;" d="M261.986,259.36c-0.418,0.381-0.834,0.762-1.245,1.147 C261.154,260.121,261.568,259.74,261.986,259.36z"/> <path style="fill:#A6D864;" d="M254.411,266.778c-0.098,0.104-0.201,0.203-0.299,0.309 C254.21,266.983,254.311,266.882,254.411,266.778z"/> <polygon style="fill:#A6D864;" points="356.471,413.207 359.784,409.896 359.784,409.894 "/> </g> <polygon style="fill:#B4DE7C;" points="359.784,409.896 418.742,350.936 359.784,409.894 "/> </g>
</svg>